<svg width="15" height="16" viewBox="0 0 15 16" fill="none" xmlns="http://www.w3.org/2000/svg">
<g clip-path="url(#clip0_4_2)">
<path d="M7.50333 4.40623C5.37386 4.40623 3.65623 6.00936 3.65623 7.99686C3.65623 9.98436 5.37386 11.5875 7.50333 11.5875C9.63279 11.5875 11.3504 9.98436 11.3504 7.99686C11.3504 6.00936 9.63279 4.40623 7.50333 4.40623ZM7.50333 10.3312C6.12721 10.3312 5.00221 9.28436 5.00221 7.99686C5.00221 6.70936 6.12386 5.66248 7.50333 5.66248C8.88279 5.66248 10.0044 6.70936 10.0044 7.99686C10.0044 9.28436 8.87944 10.3312 7.50333 10.3312V10.3312ZM12.4051 4.25936C12.4051 4.72498 12.0033 5.09686 11.5078 5.09686C11.0089 5.09686 10.6105 4.72186 10.6105 4.25936C10.6105 3.79686 11.0123 3.42186 11.5078 3.42186C12.0033 3.42186 12.4051 3.79686 12.4051 4.25936ZM14.9531 5.10936C14.8962 3.98748 14.6216 2.99373 13.7411 2.17498C12.8638 1.35623 11.7991 1.09998 10.5971 1.04373C9.35824 0.97811 5.64507 0.97811 4.40623 1.04373C3.20757 1.09686 2.14284 1.35311 1.26226 2.17186C0.381675 2.99061 0.110469 3.98436 0.0502014 5.10623C-0.0201111 6.26248 -0.0201111 9.72811 0.0502014 10.8844C0.107121 12.0062 0.381675 13 1.26226 13.8187C2.14284 14.6375 3.20422 14.8937 4.40623 14.95C5.64507 15.0156 9.35824 15.0156 10.5971 14.95C11.7991 14.8969 12.8638 14.6406 13.7411 13.8187C14.6183 13 14.8928 12.0062 14.9531 10.8844C15.0234 9.72811 15.0234 6.26561 14.9531 5.10936V5.10936ZM13.3527 12.125C13.0915 12.7375 12.5859 13.2094 11.9263 13.4562C10.9386 13.8219 8.59485 13.7375 7.50333 13.7375C6.41181 13.7375 4.06471 13.8187 3.08034 13.4562C2.42409 13.2125 1.91851 12.7406 1.654 12.125C1.26226 11.2031 1.35266 9.01561 1.35266 7.99686C1.35266 6.97811 1.2656 4.78748 1.654 3.86873C1.91516 3.25623 2.42074 2.78436 3.08034 2.53748C4.06806 2.17186 6.41181 2.25623 7.50333 2.25623C8.59485 2.25623 10.9419 2.17498 11.9263 2.53748C12.5826 2.78123 13.0882 3.25311 13.3527 3.86873C13.7444 4.79061 13.654 6.97811 13.654 7.99686C13.654 9.01561 13.7444 11.2062 13.3527 12.125Z" fill="black"/>
</g>
<defs>
<clipPath id="clip0_4_2">
<rect width="15" height="16" fill="white"/>
</clipPath>
</defs>
</svg>
